<?xml version="1.0" encoding="UTF-8" standalone="no"?>
<!-- Created with Inkscape (http://www.inkscape.org/) -->

<svg
   xmlns:dc="http://purl.org/dc/elements/1.1/"
   xmlns:cc="http://creativecommons.org/ns#"
   xmlns:rdf="http://www.w3.org/1999/02/22-rdf-syntax-ns#"
   xmlns:svg="http://www.w3.org/2000/svg"
   xmlns="http://www.w3.org/2000/svg"
   xmlns:sodipodi="http://sodipodi.sourceforge.net/DTD/sodipodi-0.dtd"
   xmlns:inkscape="http://www.inkscape.org/namespaces/inkscape"
   width="130mm"
   height="50mm"
   viewBox="0 0 130 50"
   version="1.1"
   id="svg4650"
   inkscape:version="0.92.3 (2405546, 2018-03-11)"
   sodipodi:docname="logo_gae.svg">
  <defs
     id="defs4644" />
  <sodipodi:namedview
     id="base"
     pagecolor="#ffffff"
     bordercolor="#666666"
     borderopacity="1.0"
     inkscape:pageopacity="0.0"
     inkscape:pageshadow="2"
     inkscape:zoom="0.35"
     inkscape:cx="400"
     inkscape:cy="217.14286"
     inkscape:document-units="mm"
     inkscape:current-layer="layer1"
     showgrid="false"
     inkscape:window-width="1366"
     inkscape:window-height="713"
     inkscape:window-x="-8"
     inkscape:window-y="-8"
     inkscape:window-maximized="1" />
  <metadata
     id="metadata4647">
    <rdf:RDF>
      <cc:Work
         rdf:about="">
        <dc:format>image/svg+xml</dc:format>
        <dc:type
           rdf:resource="http://purl.org/dc/dcmitype/StillImage" />
        <dc:title></dc:title>
      </cc:Work>
    </rdf:RDF>
  </metadata>
  <g
     inkscape:label="Capa 1"
     inkscape:groupmode="layer"
     id="layer1"
     transform="translate(0,-247)">
    <path
       inkscape:connector-curvature="0"
       id="path4748"
       d="m 110.99955,287.6724 c 1.78263,-0.0458 4.69967,-0.0458 6.4823,0 1.78263,0.0458 0.32411,0.0832 -3.24115,0.0832 -3.56526,0 -5.02378,-0.0375 -3.24115,-0.0832 z m -13.046753,-6.02006 0.01603,-2.11667 14.480233,-0.0684 14.48023,-0.0684 0.0804,-4.95868 0.0804,-4.95868 -0.009,5.02708 -0.009,5.02708 -14.47528,0.0684 -14.475271,0.0684 -0.09284,2.04827 -0.09284,2.04827 0.01603,-2.11667 z m -70.164698,-2.44707 c 2.874037,-0.0427 7.577005,-0.0427 10.451042,0 2.874036,0.0427 0.522552,0.0777 -5.225521,0.0777 -5.748073,0 -8.099557,-0.035 -5.225521,-0.0777 z m 32.543749,1.2e-4 c 2.437474,-0.0437 6.426069,-0.0437 8.863543,0 2.437474,0.0437 0.443177,0.0794 -4.431771,0.0794 -4.874949,0 -6.869246,-0.0357 -4.431772,-0.0794 z M 55.875496,264.8513 c 0,-2.4011 0.04011,-3.38336 0.08914,-2.18282 0.04903,1.20055 0.04903,3.16508 0,4.36563 -0.04903,1.20055 -0.08914,0.21828 -0.08914,-2.18281 z m 29.370361,-8.59896 c 2.65e-4,-2.61938 0.03987,-3.65515 0.08799,-2.30172 0.04812,1.35343 0.04789,3.49655 -5.29e-4,4.7625 -0.04839,1.26594 -0.08776,0.15859 -0.08749,-2.46078 z m -15.739763,-2.4474 -0.641432,-0.7276 0.727604,0.64143 c 0.680056,0.59952 0.848939,0.81378 0.641432,0.81378 -0.04739,0 -0.374814,-0.32743 -0.727604,-0.72761 z"
       style="fill:#dcdcdc;stroke-width:0.26458335" />
    <path
       inkscape:connector-curvature="0"
       id="path4744"
       d="m 43.440079,283.63671 c 0,-2.40109 0.04011,-3.38336 0.08914,-2.18281 0.04903,1.20055 0.04903,3.16508 0,4.36563 -0.04903,1.20054 -0.08914,0.21828 -0.08914,-2.18282 z m 60.293091,4.03752 c 0.84206,-0.0527 2.15175,-0.0522 2.91042,10e-4 0.75867,0.0533 0.0697,0.0964 -1.53101,0.0958 -1.60073,-5.3e-4 -2.22146,-0.0442 -1.37941,-0.0968 z M 58.228925,269.1518 c 1.426387,-0.0477 3.688575,-0.0475 5.027083,5.3e-4 1.338508,0.0479 0.171466,0.0869 -2.59343,0.0867 -2.764896,-2.5e-4 -3.860041,-0.0395 -2.433653,-0.0871 z m 47.214375,-7.9e-4 c 3.96545,-0.0412 10.45435,-0.0412 14.4198,0 3.96544,0.0411 0.72099,0.0748 -7.2099,0.0748 -7.93089,0 -11.17534,-0.0337 -7.2099,-0.0748 z"
       style="fill:#b8b8b8;stroke-width:0.26458335" />
    <path
       inkscape:connector-curvature="0"
       id="path4742"
       d="m 8.109037,290.58203 c -0.329107,-0.41965 -0.319749,-0.42901 0.0999,-0.0999 0.254662,0.19972 0.463021,0.40808 0.463021,0.46302 0,0.21776 -0.217272,0.0776 -0.562916,-0.36312 z m 6.715056,-16.33802 c 0.0029,-0.58209 0.05712,-0.78906 0.120406,-0.45994 0.06329,0.32912 0.06088,0.80537 -0.0053,1.05833 -0.06622,0.25297 -0.118005,-0.0163 -0.115068,-0.59839 z m 18.252249,-5.35614 10.249178,-0.074 0.07479,-9.12509 0.07479,-9.12509 -0.0052,9.19434 -0.0052,9.19434 -10.31875,0.005 -10.31875,0.005 10.24918,-0.074 z m -4.22991,-8.46715 c 1.418829,-0.0476 3.740547,-0.0476 5.159375,0 1.418829,0.0476 0.257969,0.0865 -2.579687,0.0865 -2.837656,0 -3.998516,-0.0389 -2.579688,-0.0865 z m 75.689048,-0.001 c 3.46614,-0.0418 9.06208,-0.0418 12.43542,1e-4 3.37334,0.0419 0.5374,0.0761 -6.30207,0.076 -6.83948,-6e-5 -9.59949,-0.0343 -6.13335,-0.0761 z"
       style="fill:#999999;stroke-width:0.26458335" />
    <path
       inkscape:connector-curvature="0"
       id="path4740"
       d="m 30.169349,287.93664 c 2.437474,-0.0437 6.426068,-0.0437 8.863542,0 2.437474,0.0437 0.443177,0.0794 -4.431771,0.0794 -4.874948,0 -6.869245,-0.0357 -4.431771,-0.0794 z m -7.36373,-13.82493 c 0,-2.83765 0.03892,-3.99851 0.0865,-2.57968 0.04757,1.41882 0.04757,3.74054 0,5.15937 -0.04757,1.41883 -0.0865,0.25797 -0.0865,-2.57969 z m -21.19273,0.52917 c 0,-0.94589 0.04802,-1.33284 0.106712,-0.8599 0.05869,0.47295 0.05869,1.24685 0,1.7198 -0.05869,0.47294 -0.106712,0.086 -0.106712,-0.8599 z m 24.207372,-14.20366 c 0.190994,-0.0764 0.419198,-0.067 0.507119,0.0209 0.08792,0.0879 -0.06835,0.15045 -0.347266,0.13896 -0.308226,-0.0127 -0.370919,-0.0754 -0.159853,-0.15985 z m 30.944452,-0.011 c 0.475549,-0.0589 1.189924,-0.0577 1.5875,0.003 0.397576,0.0604 0.0085,0.10855 -0.864635,0.10706 -0.873125,-0.002 -1.198414,-0.0509 -0.722865,-0.10976 z M 8.804245,257.17838 c 0.263389,-0.29104 0.53842,-0.52917 0.611181,-0.52917 0.07276,0 -0.08321,0.23813 -0.346598,0.52917 -0.263389,0.29104 -0.538421,0.52917 -0.611181,0.52917 -0.07276,0 0.08321,-0.23813 0.346598,-0.52917 z"
       style="fill:#818181;stroke-width:0.26458335" />
    <path
       inkscape:connector-curvature="0"
       id="path4738"
       d="m 127.05099,292.76484 c 2.5e-4,-2.7649 0.0395,-3.86004 0.0871,-2.43365 0.0477,1.42638 0.0475,3.68857 -5.3e-4,5.02708 -0.0479,1.33851 -0.0869,0.17146 -0.0867,-2.59343 z M 98.209382,264.98359 c -2.64e-4,-2.47386 0.03946,-3.5215 0.08837,-2.3281 0.04891,1.1934 0.04916,3.21747 5.29e-4,4.49792 -0.0486,1.28045 -0.08862,0.30403 -0.08893,-2.16982 z M 7.61362,258.4014 c 0,-0.0549 0.208359,-0.2633 0.46302,-0.46302 0.419644,-0.32911 0.429003,-0.31975 0.09989,0.0999 -0.345643,0.44073 -0.562915,0.58088 -0.562915,0.36312 z m 61.75507,-4.46417 -0.504028,-0.59531 0.595312,0.50403 c 0.559446,0.47366 0.715762,0.6866 0.504029,0.6866 -0.05021,0 -0.318098,-0.26789 -0.595313,-0.59532 z"
       style="fill:#6a6a6a;stroke-width:0.26458335" />
    <path
       inkscape:connector-curvature="0"
       id="path4736"
       d="m 21.401846,297.25094 c -2.712035,-0.58837 -4.217887,-1.14983 -7.173643,-2.67471 -6.441313,-3.3231 -10.40896,-8.1516 -11.924222,-14.51139 -0.490157,-2.05727 -0.550187,-2.92122 -0.44121,-6.35 0.136634,-4.299 0.762317,-7.12108 2.217814,-10.00323 2.815021,-5.57426 7.978059,-9.84977 14.645535,-12.12798 l 2.513542,-0.85885 7.60677,-0.10173 7.606771,-0.10172 v 4.91602 4.91603 h -5.236077 c -5.901997,0 -7.472855,0.26668 -9.806496,1.66485 -5.003054,2.9975 -7.56684,9.41816 -6.255221,15.66536 1.11519,5.31163 4.884873,9.30021 9.626095,10.18506 0.783846,0.14629 5.337987,0.26598 10.120312,0.26598 h 8.695137 v -4.49792 -4.49791 h -10.31875 -10.31875 v -5.02709 -5.02708 h 10.31875 10.31875 v -9.27724 -9.27723 l 10.252604,0.083 10.252605,0.083 1.752436,0.83032 c 0.96384,0.45667 2.264367,1.29011 2.890065,1.85208 1.359156,1.22073 5.005519,5.56487 9.461256,11.27178 1.788359,2.29053 3.476207,4.28483 3.750778,4.43177 0.924103,0.49456 2.1056,0.3116 2.795599,-0.43292 l 0.648824,-0.70009 v -8.69262 -8.69261 h 18.78541 18.78542 v 4.89217 4.89218 l -12.36927,0.0688 -12.369268,0.0688 -0.07254,4.43177 -0.07254,4.43177 h 14.426188 14.42619 v 5.02709 5.02708 H 112.38862 97.836537 v 2.59821 2.59821 l 0.977421,1.1419 c 1.856432,2.16882 1.467262,2.11596 15.625182,2.12254 l 12.50156,0.006 v 4.90684 4.90684 l -17.92552,-0.0782 c -16.927182,-0.0738 -17.991828,-0.10624 -19.116143,-0.58163 -3.009519,-1.27252 -3.828945,-2.09333 -10.145795,-10.16302 l -6.044753,-7.72209 h -8.83806 -8.838059 v 9.26041 9.26042 l -16.470313,-0.021 c -12.983755,-0.0166 -16.828042,-0.0987 -18.160211,-0.38766 z M 65.82021,269.15078 c -0.0029,-0.32962 -0.78802,-1.39612 -3.814827,-5.18199 l -2.890527,-3.61541 h -1.673535 -1.673534 v 4.49792 4.49791 h 5.027083 c 2.764896,0 5.026298,-0.0893 5.02534,-0.19843 z"
       style="fill:#595959;stroke-width:0.26458335" />
  </g>
</svg>
